
<global>
amp_veltrack=0
ampeg_attack=0.001
ampeg_release=1.25
</global>

<group>
color=red
group_label=Main_Hits_RR2
seq_length=4
seq_position=1

<region>
hivel=25
key=D3
lovel=0
offset=672
sample=Snare_SnareOff_Sticks_Hits_P_D3_RR2.opus
</region>

<region>
hivel=50
key=D3
lovel=26
offset=672
sample=Snare_SnareOff_Sticks_Hits_MP_D3_RR2.opus
</region>

<region>
hivel=75
key=D3
lovel=51
offset=471
sample=Snare_SnareOff_Sticks_Hits_MF_D3_RR2.opus
</region>

<region>
hivel=127
key=D3
lovel=101
offset=649
sample=Snare_SnareOff_Sticks_Hits_FF_D3_RR2.opus
</region>

<region>
hivel=100
key=D3
lovel=76
offset=539
sample=Snare_SnareOff_Sticks_Hits_F_D3_RR2.opus
</region>

<region>
hivel=25
key=D#3
lovel=0
offset=672
sample=Snare_SnareOff_Sticks_Halfway_Hits_P_D3_RR2.opus
</region>

<region>
hivel=50
key=D#3
lovel=26
offset=598
sample=Snare_SnareOff_Sticks_Halfway_Hits_MP_D3_RR2.opus
</region>

<region>
hivel=75
key=D#3
lovel=51
offset=553
sample=Snare_SnareOff_Sticks_Halfway_Hits_MF_D3_RR2.opus
</region>

<region>
hivel=127
key=D#3
lovel=101
offset=568
sample=Snare_SnareOff_Sticks_Halfway_Hits_FF_D3_RR2.opus
</region>

<region>
hivel=100
key=D#3
lovel=76
offset=649
sample=Snare_SnareOff_Sticks_Halfway_Hits_F_D3_RR2.opus
</region>

<region>
hivel=25
key=E3
lovel=0
offset=3587
sample=Snare_SnareOff_Sticks_Edge_Hits_P_D3_RR2.opus
</region>

<region>
hivel=50
key=E3
lovel=26
offset=672
sample=Snare_SnareOff_Sticks_Edge_Hits_MP_D3_RR2.opus
</region>

<region>
hivel=75
key=E3
lovel=51
offset=570
sample=Snare_SnareOff_Sticks_Edge_Hits_MF_D3_RR2.opus
</region>

<region>
hivel=127
key=E3
lovel=101
offset=551
sample=Snare_SnareOff_Sticks_Edge_Hits_FF_D3_RR2.opus
</region>

<region>
hivel=100
key=E3
lovel=76
offset=661
sample=Snare_SnareOff_Sticks_Edge_Hits_F_D3_RR2.opus
</region>
</group>

<group>
color=red
group_label=Main_Hits_RR4
seq_length=4
seq_position=2

<region>
hivel=25
key=D3
lovel=0
offset=672
sample=Snare_SnareOff_Sticks_Hits_P_D3_RR4.opus
</region>

<region>
hivel=50
key=D3
lovel=26
offset=604
sample=Snare_SnareOff_Sticks_Hits_MP_D3_RR4.opus
</region>

<region>
hivel=75
key=D3
lovel=51
offset=468
sample=Snare_SnareOff_Sticks_Hits_MF_D3_RR4.opus
</region>

<region>
hivel=127
key=D3
lovel=101
offset=646
sample=Snare_SnareOff_Sticks_Hits_FF_D3_RR4.opus
</region>

<region>
hivel=100
key=D3
lovel=76
offset=652
sample=Snare_SnareOff_Sticks_Hits_F_D3_RR4.opus
</region>

<region>
hivel=25
key=D#3
lovel=0
offset=673
sample=Snare_SnareOff_Sticks_Halfway_Hits_P_D3_RR4.opus
</region>

<region>
hivel=50
key=D#3
lovel=26
offset=672
sample=Snare_SnareOff_Sticks_Halfway_Hits_MP_D3_RR4.opus
</region>

<region>
hivel=75
key=D#3
lovel=51
offset=578
sample=Snare_SnareOff_Sticks_Halfway_Hits_MF_D3_RR4.opus
</region>

<region>
hivel=127
key=D#3
lovel=101
offset=644
sample=Snare_SnareOff_Sticks_Halfway_Hits_FF_D3_RR4.opus
</region>

<region>
hivel=100
key=D#3
lovel=76
offset=567
sample=Snare_SnareOff_Sticks_Halfway_Hits_F_D3_RR4.opus
</region>

<region>
hivel=25
key=E3
lovel=0
offset=5312
sample=Snare_SnareOff_Sticks_Edge_Hits_P_D3_RR4.opus
</region>

<region>
hivel=50
key=E3
lovel=26
offset=672
sample=Snare_SnareOff_Sticks_Edge_Hits_MP_D3_RR4.opus
</region>

<region>
hivel=75
key=E3
lovel=51
offset=619
sample=Snare_SnareOff_Sticks_Edge_Hits_MF_D3_RR4.opus
</region>

<region>
hivel=127
key=E3
lovel=101
offset=573
sample=Snare_SnareOff_Sticks_Edge_Hits_FF_D3_RR4.opus
</region>

<region>
hivel=100
key=E3
lovel=76
offset=646
sample=Snare_SnareOff_Sticks_Edge_Hits_F_D3_RR4.opus
</region>
</group>

<group>
color=red
group_label=Main_Hits_RR6
seq_length=4
seq_position=3

<region>
hivel=25
key=D3
lovel=0
offset=672
sample=Snare_SnareOff_Sticks_Hits_P_D3_RR6.opus
</region>

<region>
hivel=50
key=D3
lovel=26
offset=672
sample=Snare_SnareOff_Sticks_Hits_MP_D3_RR6.opus
</region>

<region>
hivel=75
key=D3
lovel=51
offset=547
sample=Snare_SnareOff_Sticks_Hits_MF_D3_RR6.opus
</region>

<region>
hivel=127
key=D3
lovel=101
offset=682
sample=Snare_SnareOff_Sticks_Hits_FF_D3_RR6.opus
</region>

<region>
hivel=100
key=D3
lovel=76
offset=537
sample=Snare_SnareOff_Sticks_Hits_F_D3_RR6.opus
</region>

<region>
hivel=25
key=D#3
lovel=0
offset=672
sample=Snare_SnareOff_Sticks_Halfway_Hits_P_D3_RR6.opus
</region>

<region>
hivel=50
key=D#3
lovel=26
offset=672
sample=Snare_SnareOff_Sticks_Halfway_Hits_MP_D3_RR6.opus
</region>

<region>
hivel=75
key=D#3
lovel=51
offset=597
sample=Snare_SnareOff_Sticks_Halfway_Hits_MF_D3_RR6.opus
</region>

<region>
hivel=127
key=D#3
lovel=101
offset=566
sample=Snare_SnareOff_Sticks_Halfway_Hits_FF_D3_RR6.opus
</region>

<region>
hivel=100
key=D#3
lovel=76
offset=589
sample=Snare_SnareOff_Sticks_Halfway_Hits_F_D3_RR6.opus
</region>

<region>
hivel=25
key=E3
lovel=0
offset=673
sample=Snare_SnareOff_Sticks_Edge_Hits_P_D3_RR6.opus
</region>

<region>
hivel=50
key=E3
lovel=26
offset=672
sample=Snare_SnareOff_Sticks_Edge_Hits_MP_D3_RR6.opus
</region>

<region>
hivel=75
key=E3
lovel=51
offset=672
sample=Snare_SnareOff_Sticks_Edge_Hits_MF_D3_RR6.opus
</region>

<region>
hivel=127
key=E3
lovel=101
offset=661
sample=Snare_SnareOff_Sticks_Edge_Hits_FF_D3_RR6.opus
</region>

<region>
hivel=100
key=E3
lovel=76
offset=655
sample=Snare_SnareOff_Sticks_Edge_Hits_F_D3_RR6.opus
</region>
</group>

<group>
color=red
group_label=Main_Hits_RR8
seq_length=4
seq_position=4

<region>
hivel=25
key=D3
lovel=0
offset=673
sample=Snare_SnareOff_Sticks_Hits_P_D3_RR8.opus
</region>

<region>
hivel=50
key=D3
lovel=26
offset=672
sample=Snare_SnareOff_Sticks_Hits_MP_D3_RR8.opus
</region>

<region>
hivel=75
key=D3
lovel=51
offset=567
sample=Snare_SnareOff_Sticks_Hits_MF_D3_RR8.opus
</region>

<region>
hivel=127
key=D3
lovel=101
offset=568
sample=Snare_SnareOff_Sticks_Hits_FF_D3_RR8.opus
</region>

<region>
hivel=100
key=D3
lovel=76
offset=659
sample=Snare_SnareOff_Sticks_Hits_F_D3_RR8.opus
</region>

<region>
hivel=25
key=D#3
lovel=0
offset=673
sample=Snare_SnareOff_Sticks_Halfway_Hits_P_D3_RR8.opus
</region>

<region>
hivel=50
key=D#3
lovel=26
offset=672
sample=Snare_SnareOff_Sticks_Halfway_Hits_MP_D3_RR8.opus
</region>

<region>
hivel=75
key=D#3
lovel=51
offset=584
sample=Snare_SnareOff_Sticks_Halfway_Hits_MF_D3_RR8.opus
</region>

<region>
hivel=127
key=D#3
lovel=101
offset=653
sample=Snare_SnareOff_Sticks_Halfway_Hits_FF_D3_RR8.opus
</region>

<region>
hivel=100
key=D#3
lovel=76
offset=573
sample=Snare_SnareOff_Sticks_Halfway_Hits_F_D3_RR8.opus
</region>

<region>
hivel=25
key=E3
lovel=0
offset=4682
sample=Snare_SnareOff_Sticks_Edge_Hits_P_D3_RR8.opus
</region>

<region>
hivel=50
key=E3
lovel=26
offset=672
sample=Snare_SnareOff_Sticks_Edge_Hits_MP_D3_RR8.opus
</region>

<region>
hivel=75
key=E3
lovel=51
offset=597
sample=Snare_SnareOff_Sticks_Edge_Hits_MF_D3_RR8.opus
</region>

<region>
hivel=127
key=E3
lovel=101
offset=670
sample=Snare_SnareOff_Sticks_Edge_Hits_FF_D3_RR8.opus
</region>

<region>
hivel=100
key=E3
lovel=76
offset=651
sample=Snare_SnareOff_Sticks_Edge_Hits_F_D3_RR8.opus
</region>
</group>

<group>
color=green
group_label=Alt_Hits_RR2
seq_length=2
seq_position=1

<region>
hivel=25
key=D4
lovel=0
offset=754
sample=Snare_SnareOff_Sticks_Rim_Hit_P_D3_RR2.opus
</region>

<region>
hivel=50
key=D4
lovel=26
offset=1239
sample=Snare_SnareOff_Sticks_Rim_Hit_MP_D3_RR2.opus
</region>

<region>
hivel=75
key=D4
lovel=51
offset=788
sample=Snare_SnareOff_Sticks_Rim_Hit_MF_D3_RR2.opus
</region>

<region>
hivel=127
key=D4
lovel=101
offset=675
sample=Snare_SnareOff_Sticks_Rim_Hit_FF_D3_RR2.opus
</region>

<region>
hivel=100
key=D4
lovel=76
offset=738
sample=Snare_SnareOff_Sticks_Rim_Hit_F_D3_RR2.opus
</region>

<region>
hivel=25
key=E4
lovel=0
offset=734
sample=Snare_SnareOff_Sticks_Buzz_Stroke_P_D3_RR2.opus
</region>

<region>
hivel=50
key=E4
lovel=26
offset=774
sample=Snare_SnareOff_Sticks_Buzz_Stroke_MP_D3_RR2.opus
</region>

<region>
hivel=75
key=E4
lovel=51
offset=807
sample=Snare_SnareOff_Sticks_Buzz_Stroke_MF_D3_RR2.opus
</region>

<region>
hivel=127
key=E4
lovel=101
offset=758
sample=Snare_SnareOff_Sticks_Buzz_Stroke_FF_D3_RR2.opus
</region>

<region>
hivel=100
key=E4
lovel=76
offset=637
sample=Snare_SnareOff_Sticks_Buzz_Stroke_F_D3_RR2.opus
</region>

<region>
hivel=25
key=F4
lovel=0
offset=739
sample=Snare_SnareOff_Sticks_Dry_Buzz_Stroke_P_D3_RR2.opus
</region>

<region>
hivel=50
key=F4
lovel=26
offset=696
sample=Snare_SnareOff_Sticks_Dry_Buzz_Stroke_MP_D3_RR2.opus
</region>

<region>
hivel=75
key=F4
lovel=51
offset=753
sample=Snare_SnareOff_Sticks_Dry_Buzz_Stroke_MF_D3_RR2.opus
</region>

<region>
hivel=127
key=F4
lovel=101
offset=783
sample=Snare_SnareOff_Sticks_Dry_Buzz_Stroke_FF_D3_RR2.opus
</region>

<region>
hivel=100
key=F4
lovel=76
offset=664
sample=Snare_SnareOff_Sticks_Dry_Buzz_Stroke_F_D3_RR2.opus
</region>

<region>
hivel=25
key=F#4
lovel=0
offset=6493
sample=Snare_SnareOff_Sticks_Edge_Buzz_Stroke_P_D3_RR2.opus
</region>

<region>
hivel=50
key=F#4
lovel=26
offset=761
sample=Snare_SnareOff_Sticks_Edge_Buzz_Stroke_MP_D3_RR2.opus
</region>

<region>
hivel=75
key=F#4
lovel=51
offset=668
sample=Snare_SnareOff_Sticks_Edge_Buzz_Stroke_MF_D3_RR2.opus
</region>

<region>
hivel=127
key=F#4
lovel=101
offset=750
sample=Snare_SnareOff_Sticks_Edge_Buzz_Stroke_FF_D3_RR2.opus
</region>

<region>
hivel=100
key=F#4
lovel=76
offset=669
sample=Snare_SnareOff_Sticks_Edge_Buzz_Stroke_F_D3_RR2.opus
</region>

<region>
hivel=25
key=G4
lovel=0
offset=3789
sample=Snare_SnareOff_Sticks_Edge_Dry_Buzz_Stroke_P_D3_RR2.opus
</region>

<region>
hivel=50
key=G4
lovel=26
offset=790
sample=Snare_SnareOff_Sticks_Edge_Dry_Buzz_Stroke_MP_D3_RR2.opus
</region>

<region>
hivel=75
key=G4
lovel=51
offset=759
sample=Snare_SnareOff_Sticks_Edge_Dry_Buzz_Stroke_MF_D3_RR2.opus
</region>

<region>
hivel=127
key=G4
lovel=101
offset=753
sample=Snare_SnareOff_Sticks_Edge_Dry_Buzz_Stroke_FF_D3_RR2.opus
</region>

<region>
hivel=100
key=G4
lovel=76
offset=748
sample=Snare_SnareOff_Sticks_Edge_Dry_Buzz_Stroke_F_D3_RR2.opus
</region>

<region>
hivel=25
key=G#4
lovel=0
offset=5170
sample=Snare_SnareOff_Sticks_Halfway_Buzz_Stroke_P_D3_RR2.opus
</region>

<region>
hivel=50
key=G#4
lovel=26
offset=710
sample=Snare_SnareOff_Sticks_Halfway_Buzz_Stroke_MP_D3_RR2.opus
</region>

<region>
hivel=75
key=G#4
lovel=51
offset=765
sample=Snare_SnareOff_Sticks_Halfway_Buzz_Stroke_MF_D3_RR2.opus
</region>

<region>
hivel=127
key=G#4
lovel=101
offset=757
sample=Snare_SnareOff_Sticks_Halfway_Buzz_Stroke_FF_D3_RR2.opus
</region>

<region>
hivel=100
key=G#4
lovel=76
offset=749
sample=Snare_SnareOff_Sticks_Halfway_Buzz_Stroke_F_D3_RR2.opus
</region>

<region>
hivel=25
key=A4
lovel=0
offset=4356
sample=Snare_SnareOff_Sticks_Halfway_Dry_Buzz_Stroke_P_D3_RR2.opus
</region>

<region>
hivel=50
key=A4
lovel=26
offset=792
sample=Snare_SnareOff_Sticks_Halfway_Dry_Buzz_Stroke_MP_D3_RR2.opus
</region>

<region>
hivel=75
key=A4
lovel=51
offset=757
sample=Snare_SnareOff_Sticks_Halfway_Dry_Buzz_Stroke_MF_D3_RR2.opus
</region>

<region>
hivel=127
key=A4
lovel=101
offset=674
sample=Snare_SnareOff_Sticks_Halfway_Dry_Buzz_Stroke_FF_D3_RR2.opus
</region>

<region>
hivel=100
key=A4
lovel=76
offset=666
sample=Snare_SnareOff_Sticks_Halfway_Dry_Buzz_Stroke_F_D3_RR2.opus
</region>

<region>
hivel=25
key=D5
lovel=0
offset=653
sample=Snare_SnareOff_Sticks_Stick_Shot_P_D3_RR2.opus
</region>

<region>
hivel=50
key=D5
lovel=26
offset=754
sample=Snare_SnareOff_Sticks_Stick_Shot_MP_D3_RR2.opus
</region>

<region>
hivel=75
key=D5
lovel=51
offset=774
sample=Snare_SnareOff_Sticks_Stick_Shot_MF_D3_RR2.opus
</region>

<region>
hivel=127
key=D5
lovel=101
offset=754
sample=Snare_SnareOff_Sticks_Stick_Shot_FF_D3_RR2.opus
</region>

<region>
hivel=100
key=D5
lovel=76
offset=755
sample=Snare_SnareOff_Sticks_Stick_Shot_F_D3_RR2.opus
</region>

<region>
hivel=25
key=D#5
lovel=0
offset=797
sample=Snare_SnareOff_Sticks_Rim_Knock_P_D3_RR2.opus
</region>

<region>
hivel=50
key=D#5
lovel=26
offset=654
sample=Snare_SnareOff_Sticks_Rim_Knock_MP_D3_RR2.opus
</region>

<region>
hivel=75
key=D#5
lovel=51
offset=680
sample=Snare_SnareOff_Sticks_Rim_Knock_MF_D3_RR2.opus
</region>

<region>
hivel=127
key=D#5
lovel=101
offset=676
sample=Snare_SnareOff_Sticks_Rim_Knock_FF_D3_RR2.opus
</region>

<region>
hivel=100
key=D#5
lovel=76
offset=856
sample=Snare_SnareOff_Sticks_Rim_Knock_F_D3_RR2.opus
</region>

<region>
hivel=25
key=E5
lovel=0
offset=783
sample=Snare_SnareOff_Sticks_Ping_Shot_P_D3_RR2.opus
</region>

<region>
hivel=50
key=E5
lovel=26
offset=623
sample=Snare_SnareOff_Sticks_Ping_Shot_MP_D3_RR2.opus
</region>

<region>
hivel=75
key=E5
lovel=51
offset=742
sample=Snare_SnareOff_Sticks_Ping_Shot_MF_D3_RR2.opus
</region>

<region>
hivel=127
key=E5
lovel=101
offset=743
sample=Snare_SnareOff_Sticks_Ping_Shot_FF_D3_RR2.opus
</region>

<region>
hivel=100
key=E5
lovel=76
offset=742
sample=Snare_SnareOff_Sticks_Ping_Shot_F_D3_RR2.opus
</region>

<region>
hivel=25
key=F5
lovel=0
offset=620
sample=Snare_SnareOff_Sticks_Shoulder_Shot_P_D3_RR2.opus
</region>

<region>
hivel=50
key=F5
lovel=26
offset=635
sample=Snare_SnareOff_Sticks_Shoulder_Shot_MP_D3_RR2.opus
</region>

<region>
hivel=75
key=F5
lovel=51
offset=744
sample=Snare_SnareOff_Sticks_Shoulder_Shot_MF_D3_RR2.opus
</region>

<region>
hivel=127
key=F5
lovel=101
offset=673
sample=Snare_SnareOff_Sticks_Shoulder_Shot_FF_D3_RR2.opus
</region>

<region>
hivel=100
key=F5
lovel=76
offset=653
sample=Snare_SnareOff_Sticks_Shoulder_Shot_F_D3_RR2.opus
</region>

<region>
hivel=127
key=F#5
lovel=101
offset=784
sample=Snare_SnareOff_Sticks_Gok_Shot_FF_D3_RR2.opus
</region>

<region>
hivel=100
key=F#5
lovel=76
offset=742
sample=Snare_SnareOff_Sticks_Gok_Shot_F_D3_RR2.opus
</region>

<region>
hivel=75
key=F#5
lovel=51
offset=651
sample=Snare_SnareOff_Sticks_Gok_Shot_MF_D3_RR4.opus
</region>

<region>
hivel=50
key=F#5
lovel=26
offset=661
sample=Snare_SnareOff_Sticks_Gok_Shot_MP_D3_RR3.opus
</region>

<region>
hivel=25
key=F#5
lovel=0
offset=765
sample=Snare_SnareOff_Sticks_Gok_Shot_P_D3_RR3.opus
</region>
</group>

<group>
color=green
group_label=Alt_Hits_RR4
seq_length=2
seq_position=2

<region>
hivel=25
key=D4
lovel=0
offset=3305
sample=Snare_SnareOff_Sticks_Rim_Hit_P_D3_RR4.opus
</region>

<region>
hivel=50
key=D4
lovel=26
offset=798
sample=Snare_SnareOff_Sticks_Rim_Hit_MP_D3_RR4.opus
</region>

<region>
hivel=75
key=D4
lovel=51
offset=686
sample=Snare_SnareOff_Sticks_Rim_Hit_MF_D3_RR4.opus
</region>

<region>
hivel=127
key=D4
lovel=101
offset=769
sample=Snare_SnareOff_Sticks_Rim_Hit_FF_D3_RR4.opus
</region>

<region>
hivel=100
key=D4
lovel=76
offset=706
sample=Snare_SnareOff_Sticks_Rim_Hit_F_D3_RR4.opus
</region>

<region>
hivel=25
key=E4
lovel=0
offset=703
sample=Snare_SnareOff_Sticks_Buzz_Stroke_P_D3_RR4.opus
</region>

<region>
hivel=50
key=E4
lovel=26
offset=795
sample=Snare_SnareOff_Sticks_Buzz_Stroke_MP_D3_RR4.opus
</region>

<region>
hivel=75
key=E4
lovel=51
offset=673
sample=Snare_SnareOff_Sticks_Buzz_Stroke_MF_D3_RR4.opus
</region>

<region>
hivel=127
key=E4
lovel=101
offset=671
sample=Snare_SnareOff_Sticks_Buzz_Stroke_FF_D3_RR4.opus
</region>

<region>
hivel=100
key=E4
lovel=76
offset=552
sample=Snare_SnareOff_Sticks_Buzz_Stroke_F_D3_RR4.opus
</region>

<region>
hivel=25
key=F4
lovel=0
offset=767
sample=Snare_SnareOff_Sticks_Dry_Buzz_Stroke_P_D3_RR4.opus
</region>

<region>
hivel=50
key=F4
lovel=26
offset=746
sample=Snare_SnareOff_Sticks_Dry_Buzz_Stroke_MP_D3_RR4.opus
</region>

<region>
hivel=75
key=F4
lovel=51
offset=757
sample=Snare_SnareOff_Sticks_Dry_Buzz_Stroke_MF_D3_RR4.opus
</region>

<region>
hivel=127
key=F4
lovel=101
offset=747
sample=Snare_SnareOff_Sticks_Dry_Buzz_Stroke_FF_D3_RR4.opus
</region>

<region>
hivel=100
key=F4
lovel=76
offset=514
sample=Snare_SnareOff_Sticks_Dry_Buzz_Stroke_F_D3_RR4.opus
</region>

<region>
hivel=25
key=F#4
lovel=0
offset=4521
sample=Snare_SnareOff_Sticks_Edge_Buzz_Stroke_P_D3_RR4.opus
</region>

<region>
hivel=50
key=F#4
lovel=26
offset=769
sample=Snare_SnareOff_Sticks_Edge_Buzz_Stroke_MP_D3_RR4.opus
</region>

<region>
hivel=75
key=F#4
lovel=51
offset=732
sample=Snare_SnareOff_Sticks_Edge_Buzz_Stroke_MF_D3_RR4.opus
</region>

<region>
hivel=127
key=F#4
lovel=101
offset=743
sample=Snare_SnareOff_Sticks_Edge_Buzz_Stroke_FF_D3_RR4.opus
</region>

<region>
hivel=100
key=F#4
lovel=76
offset=627
sample=Snare_SnareOff_Sticks_Edge_Buzz_Stroke_F_D3_RR4.opus
</region>

<region>
hivel=25
key=G4
lovel=0
offset=3208
sample=Snare_SnareOff_Sticks_Edge_Dry_Buzz_Stroke_P_D3_RR4.opus
</region>

<region>
hivel=50
key=G4
lovel=26
offset=1735
sample=Snare_SnareOff_Sticks_Edge_Dry_Buzz_Stroke_MP_D3_RR4.opus
</region>

<region>
hivel=75
key=G4
lovel=51
offset=787
sample=Snare_SnareOff_Sticks_Edge_Dry_Buzz_Stroke_MF_D3_RR4.opus
</region>

<region>
hivel=127
key=G4
lovel=101
offset=752
sample=Snare_SnareOff_Sticks_Edge_Dry_Buzz_Stroke_FF_D3_RR4.opus
</region>

<region>
hivel=100
key=G4
lovel=76
offset=743
sample=Snare_SnareOff_Sticks_Edge_Dry_Buzz_Stroke_F_D3_RR4.opus
</region>

<region>
hivel=25
key=G#4
lovel=0
offset=6051
sample=Snare_SnareOff_Sticks_Halfway_Buzz_Stroke_P_D3_RR4.opus
</region>

<region>
hivel=50
key=G#4
lovel=26
offset=691
sample=Snare_SnareOff_Sticks_Halfway_Buzz_Stroke_MP_D3_RR4.opus
</region>

<region>
hivel=75
key=G#4
lovel=51
offset=744
sample=Snare_SnareOff_Sticks_Halfway_Buzz_Stroke_MF_D3_RR4.opus
</region>

<region>
hivel=127
key=G#4
lovel=101
offset=757
sample=Snare_SnareOff_Sticks_Halfway_Buzz_Stroke_FF_D3_RR4.opus
</region>

<region>
hivel=100
key=G#4
lovel=76
offset=579
sample=Snare_SnareOff_Sticks_Halfway_Buzz_Stroke_F_D3_RR4.opus
</region>

<region>
hivel=25
key=A4
lovel=0
offset=5027
sample=Snare_SnareOff_Sticks_Halfway_Dry_Buzz_Stroke_P_D3_RR4.opus
</region>

<region>
hivel=50
key=A4
lovel=26
offset=747
sample=Snare_SnareOff_Sticks_Halfway_Dry_Buzz_Stroke_MP_D3_RR4.opus
</region>

<region>
hivel=75
key=A4
lovel=51
offset=715
sample=Snare_SnareOff_Sticks_Halfway_Dry_Buzz_Stroke_MF_D3_RR4.opus
</region>

<region>
hivel=127
key=A4
lovel=101
offset=756
sample=Snare_SnareOff_Sticks_Halfway_Dry_Buzz_Stroke_FF_D3_RR4.opus
</region>

<region>
hivel=100
key=A4
lovel=76
offset=615
sample=Snare_SnareOff_Sticks_Halfway_Dry_Buzz_Stroke_F_D3_RR4.opus
</region>

<region>
hivel=25
key=D5
lovel=0
offset=454
sample=Snare_SnareOff_Sticks_Stick_Shot_P_D3_RR4.opus
</region>

<region>
hivel=50
key=D5
lovel=26
offset=766
sample=Snare_SnareOff_Sticks_Stick_Shot_MP_D3_RR4.opus
</region>

<region>
hivel=75
key=D5
lovel=51
offset=767
sample=Snare_SnareOff_Sticks_Stick_Shot_MF_D3_RR4.opus
</region>

<region>
hivel=127
key=D5
lovel=101
offset=665
sample=Snare_SnareOff_Sticks_Stick_Shot_FF_D3_RR4.opus
</region>

<region>
hivel=100
key=D5
lovel=76
offset=543
sample=Snare_SnareOff_Sticks_Stick_Shot_F_D3_RR4.opus
</region>

<region>
hivel=25
key=D#5
lovel=0
offset=642
sample=Snare_SnareOff_Sticks_Rim_Knock_P_D3_RR4.opus
</region>

<region>
hivel=50
key=D#5
lovel=26
offset=734
sample=Snare_SnareOff_Sticks_Rim_Knock_MP_D3_RR4.opus
</region>

<region>
hivel=75
key=D#5
lovel=51
offset=814
sample=Snare_SnareOff_Sticks_Rim_Knock_MF_D3_RR4.opus
</region>

<region>
hivel=127
key=D#5
lovel=101
offset=762
sample=Snare_SnareOff_Sticks_Rim_Knock_FF_D3_RR4.opus
</region>

<region>
hivel=100
key=D#5
lovel=76
offset=772
sample=Snare_SnareOff_Sticks_Rim_Knock_F_D3_RR4.opus
</region>

<region>
hivel=25
key=E5
lovel=0
offset=661
sample=Snare_SnareOff_Sticks_Ping_Shot_P_D3_RR4.opus
</region>

<region>
hivel=50
key=E5
lovel=26
offset=755
sample=Snare_SnareOff_Sticks_Ping_Shot_MP_D3_RR4.opus
</region>

<region>
hivel=75
key=E5
lovel=51
offset=647
sample=Snare_SnareOff_Sticks_Ping_Shot_MF_D3_RR4.opus
</region>

<region>
hivel=127
key=E5
lovel=101
offset=634
sample=Snare_SnareOff_Sticks_Ping_Shot_FF_D3_RR4.opus
</region>

<region>
hivel=100
key=E5
lovel=76
offset=645
sample=Snare_SnareOff_Sticks_Ping_Shot_F_D3_RR4.opus
</region>

<region>
hivel=25
key=F5
lovel=0
offset=624
sample=Snare_SnareOff_Sticks_Shoulder_Shot_P_D3_RR4.opus
</region>

<region>
hivel=50
key=F5
lovel=26
offset=635
sample=Snare_SnareOff_Sticks_Shoulder_Shot_MP_D3_RR4.opus
</region>

<region>
hivel=75
key=F5
lovel=51
offset=754
sample=Snare_SnareOff_Sticks_Shoulder_Shot_MF_D3_RR4.opus
</region>

<region>
hivel=127
key=F5
lovel=101
offset=645
sample=Snare_SnareOff_Sticks_Shoulder_Shot_FF_D3_RR4.opus
</region>

<region>
hivel=100
key=F5
lovel=76
offset=632
sample=Snare_SnareOff_Sticks_Shoulder_Shot_F_D3_RR4.opus
</region>

<region>
hivel=25
key=F#5
lovel=0
offset=678
sample=Snare_SnareOff_Sticks_Gok_Shot_P_D3_RR4.opus
</region>

<region>
hivel=50
key=F#5
lovel=26
offset=528
sample=Snare_SnareOff_Sticks_Gok_Shot_MP_D3_RR4.opus
</region>

<region>
hivel=127
key=F#5
lovel=101
offset=707
sample=Snare_SnareOff_Sticks_Gok_Shot_FF_D3_RR4.opus
</region>

<region>
hivel=100
key=F#5
lovel=76
offset=746
sample=Snare_SnareOff_Sticks_Gok_Shot_F_D3_RR4.opus
</region>

<region>
hivel=75
key=F#5
lovel=51
offset=651
sample=Snare_SnareOff_Sticks_Gok_Shot_MF_D3_RR4.opus
</region>
</group>

<group>
amp_veltrack=0
ampeg_release=0.02
group_label=Rolls_RR1_26-50
seq_length=2
seq_position=1
xfin_hicc1=50
xfin_locc1=26
xfout_hicc1=74
xfout_locc1=50

<region>
hivel=127
key=D2
loop_end=122751
loop_mode=loop_continuous
loop_start=25561
loop_xfade=11635
lovel=1
sample=Snare_SnareOff_Sticks_Buzz_Roll_MP_D3_RR1.opus
</region>

<region>
hivel=127
key=D#2
loop_end=122946
loop_mode=loop_continuous
loop_start=25602
loop_xfade=11653
lovel=1
sample=Snare_SnareOff_Sticks_Halfway_Buzz_Roll_MP_D3_RR1.opus
</region>

<region>
hivel=127
key=E2
loop_end=122759
loop_mode=loop_continuous
loop_start=25563
loop_xfade=11636
lovel=1
sample=Snare_SnareOff_Sticks_Edge_Buzz_Roll_MP_D3_RR1.opus
</region>
</group>

<group>
amp_veltrack=0
ampeg_release=0.02
group_label=Rolls_RR1_0-25
seq_length=2
seq_position=1
xfin_hicc1=25
xfout_hicc1=50
xfout_locc1=25

<region>
hivel=127
key=D2
loop_end=122328
loop_mode=loop_continuous
loop_start=25473
loop_xfade=11595
lovel=1
sample=Snare_SnareOff_Sticks_Buzz_Roll_P_D3_RR1.opus
</region>

<region>
hivel=127
key=D#2
loop_end=122098
loop_mode=loop_continuous
loop_start=25425
loop_xfade=11573
lovel=1
sample=Snare_SnareOff_Sticks_Halfway_Buzz_Roll_P_D3_RR1.opus
</region>

<region>
hivel=127
key=E2
loop_end=124271
loop_mode=loop_continuous
loop_start=25878
loop_xfade=11779
lovel=1
sample=Snare_SnareOff_Sticks_Edge_Buzz_Roll_P_D3_RR1.opus
</region>
</group>

<group>
amp_veltrack=0
ampeg_release=0.02
group_label=Rolls_RR1_76-100
seq_length=2
seq_position=1
xfin_hicc1=100
xfin_locc1=76
xfout_hicc1=124
xfout_locc1=100

<region>
hivel=127
key=D2
loop_end=123286
loop_mode=loop_continuous
loop_start=25673
loop_xfade=11685
lovel=1
sample=Snare_SnareOff_Sticks_Buzz_Roll_F_D3_RR1.opus
</region>

<region>
hivel=127
key=D#2
loop_end=124061
loop_mode=loop_continuous
loop_start=25834
loop_xfade=11759
lovel=1
sample=Snare_SnareOff_Sticks_Halfway_Buzz_Roll_F_D3_RR1.opus
</region>

<region>
hivel=127
key=E2
loop_end=123107
loop_mode=loop_continuous
loop_start=25635
loop_xfade=11669
lovel=1
sample=Snare_SnareOff_Sticks_Edge_Buzz_Roll_F_D3_RR1.opus
</region>
</group>

<group>
amp_veltrack=0
ampeg_release=0.02
group_label=Rolls_RR1_51-75
seq_length=2
seq_position=1
xfin_hicc1=75
xfin_locc1=51
xfout_hicc1=99
xfout_locc1=75

<region>
hivel=127
key=D2
loop_end=123576
loop_mode=loop_continuous
loop_start=25733
loop_xfade=11713
lovel=1
sample=Snare_SnareOff_Sticks_Buzz_Roll_MF_D3_RR1.opus
</region>

<region>
hivel=127
key=D#2
loop_end=123546
loop_mode=loop_continuous
loop_start=25727
loop_xfade=11710
lovel=1
sample=Snare_SnareOff_Sticks_Halfway_Buzz_Roll_MF_D3_RR1.opus
</region>

<region>
hivel=127
key=E2
loop_end=123782
loop_mode=loop_continuous
loop_start=25776
loop_xfade=11733
lovel=1
sample=Snare_SnareOff_Sticks_Edge_Buzz_Roll_MF_D3_RR1.opus
</region>
</group>

<group>
amp_veltrack=0
ampeg_release=0.02
group_label=Rolls_RR1_101-127
seq_length=2
seq_position=1
xfin_hicc1=127
xfin_locc1=101
xfout_hicc1=127
xfout_locc1=127

<region>
hivel=127
key=D2
loop_end=122262
loop_mode=loop_continuous
loop_start=25460
loop_xfade=11588
lovel=1
sample=Snare_SnareOff_Sticks_Buzz_Roll_FF_D3_RR1.opus
</region>

<region>
hivel=127
key=D#2
loop_end=122838
loop_mode=loop_continuous
loop_start=25579
loop_xfade=11643
lovel=1
sample=Snare_SnareOff_Sticks_Halfway_Buzz_Roll_FF_D3_RR1.opus
</region>

<region>
hivel=127
key=E2
loop_end=122788
loop_mode=loop_continuous
loop_start=25569
loop_xfade=11638
lovel=1
sample=Snare_SnareOff_Sticks_Edge_Buzz_Roll_FF_D3_RR1.opus
</region>
</group>

<group>
amp_veltrack=0
ampeg_release=0.02
group_label=Rolls_RR2_26-50
seq_length=2
seq_position=2
xfin_hicc1=50
xfin_locc1=26
xfout_hicc1=74
xfout_locc1=50

<region>
hivel=127
key=D2
loop_end=122296
loop_mode=loop_continuous
loop_start=25467
loop_xfade=11592
lovel=1
sample=Snare_SnareOff_Sticks_Buzz_Roll_MP_D3_RR2.opus
</region>

<region>
hivel=127
key=D#2
loop_end=122812
loop_mode=loop_continuous
loop_start=25574
loop_xfade=11641
lovel=1
sample=Snare_SnareOff_Sticks_Halfway_Buzz_Roll_MP_D3_RR2.opus
</region>

<region>
hivel=127
key=E2
loop_end=122492
loop_mode=loop_continuous
loop_start=25507
loop_xfade=11610
lovel=1
sample=Snare_SnareOff_Sticks_Edge_Buzz_Roll_MP_D3_RR2.opus
</region>
</group>

<group>
amp_veltrack=0
ampeg_release=0.02
group_label=Rolls_RR2_0-25
seq_length=2
seq_position=2
xfin_hicc1=25
xfout_hicc1=50
xfout_locc1=25

<region>
hivel=127
key=D2
loop_end=121751
loop_mode=loop_continuous
loop_start=25353
loop_xfade=11540
lovel=1
sample=Snare_SnareOff_Sticks_Buzz_Roll_P_D3_RR2.opus
</region>

<region>
hivel=127
key=D#2
loop_end=122458
loop_mode=loop_continuous
loop_start=25500
loop_xfade=11607
lovel=1
sample=Snare_SnareOff_Sticks_Halfway_Buzz_Roll_P_D3_RR2.opus
</region>

<region>
hivel=127
key=E2
loop_end=123312
loop_mode=loop_continuous
loop_start=25678
loop_xfade=11688
lovel=1
sample=Snare_SnareOff_Sticks_Edge_Buzz_Roll_P_D3_RR2.opus
</region>
</group>

<group>
amp_veltrack=0
ampeg_release=0.02
group_label=Rolls_RR2_76-100
seq_length=2
seq_position=2
xfin_hicc1=100
xfin_locc1=76
xfout_hicc1=124
xfout_locc1=100

<region>
hivel=127
key=D2
loop_end=122853
loop_mode=loop_continuous
loop_start=25583
loop_xfade=11644
lovel=1
sample=Snare_SnareOff_Sticks_Buzz_Roll_F_D3_RR2.opus
</region>

<region>
hivel=127
key=D#2
loop_end=123235
loop_mode=loop_continuous
loop_start=25662
loop_xfade=11681
lovel=1
sample=Snare_SnareOff_Sticks_Halfway_Buzz_Roll_F_D3_RR2.opus
</region>

<region>
hivel=127
key=E2
loop_end=122867
loop_mode=loop_continuous
loop_start=25586
loop_xfade=11646
lovel=1
sample=Snare_SnareOff_Sticks_Edge_Buzz_Roll_F_D3_RR2.opus
</region>
</group>

<group>
amp_veltrack=0
ampeg_release=0.02
group_label=Rolls_RR2_51-75
seq_length=2
seq_position=2
xfin_hicc1=75
xfin_locc1=51
xfout_hicc1=99
xfout_locc1=75

<region>
hivel=127
key=D2
loop_end=122883
loop_mode=loop_continuous
loop_start=25589
loop_xfade=11647
lovel=1
sample=Snare_SnareOff_Sticks_Buzz_Roll_MF_D3_RR2.opus
</region>

<region>
hivel=127
key=D#2
loop_end=123030
loop_mode=loop_continuous
loop_start=25619
loop_xfade=11661
lovel=1
sample=Snare_SnareOff_Sticks_Halfway_Buzz_Roll_MF_D3_RR2.opus
</region>

<region>
hivel=127
key=E2
loop_end=123134
loop_mode=loop_continuous
loop_start=25641
loop_xfade=11671
lovel=1
sample=Snare_SnareOff_Sticks_Edge_Buzz_Roll_MF_D3_RR2.opus
</region>
</group>

<group>
amp_veltrack=0
ampeg_release=0.02
group_label=Rolls_RR2_101-127
seq_length=2
seq_position=2
xfin_hicc1=127
xfin_locc1=101
xfout_hicc1=127
xfout_locc1=127

<region>
hivel=127
key=D2
loop_end=122747
loop_mode=loop_continuous
loop_start=25560
loop_xfade=11634
lovel=1
sample=Snare_SnareOff_Sticks_Buzz_Roll_FF_D3_RR2.opus
</region>

<region>
hivel=127
key=D#2
loop_end=122516
loop_mode=loop_continuous
loop_start=25512
loop_xfade=11613
lovel=1
sample=Snare_SnareOff_Sticks_Halfway_Buzz_Roll_FF_D3_RR2.opus
</region>

<region>
hivel=127
key=E2
loop_end=122489
loop_mode=loop_continuous
loop_start=25507
loop_xfade=11610
lovel=1
sample=Snare_SnareOff_Sticks_Edge_Buzz_Roll_FF_D3_RR2.opus
</region>
</group>

<group>
amp_veltrack=0
ampeg_attack=0.01
ampeg_release=1.95
group_label=Rolls_RR1_RELEASE_51-75
offset=128000
seq_length=2
seq_position=1
trigger=release
xfin_hicc1=75
xfin_locc1=51
xfout_hicc1=99
xfout_locc1=75

<region>
hivel=127
key=D2
lovel=1
sample=Snare_SnareOff_Sticks_Buzz_Roll_MF_D3_RR1.opus
</region>

<region>
hivel=127
key=D#2
lovel=1
sample=Snare_SnareOff_Sticks_Halfway_Buzz_Roll_MF_D3_RR1.opus
</region>

<region>
hivel=127
key=E2
lovel=1
sample=Snare_SnareOff_Sticks_Edge_Buzz_Roll_MF_D3_RR1.opus
</region>
</group>

<group>
amp_veltrack=0
ampeg_attack=0.01
ampeg_release=1.95
group_label=Rolls_RR1_RELEASE_76-100
offset=128000
seq_length=2
seq_position=1
trigger=release
xfin_hicc1=100
xfin_locc1=76
xfout_hicc1=124
xfout_locc1=100

<region>
hivel=127
key=D2
lovel=1
sample=Snare_SnareOff_Sticks_Buzz_Roll_F_D3_RR1.opus
</region>

<region>
hivel=127
key=D#2
lovel=1
sample=Snare_SnareOff_Sticks_Halfway_Buzz_Roll_F_D3_RR1.opus
</region>

<region>
hivel=127
key=E2
lovel=1
sample=Snare_SnareOff_Sticks_Edge_Buzz_Roll_F_D3_RR1.opus
</region>
</group>

<group>
amp_veltrack=0
ampeg_attack=0.01
ampeg_release=1.95
group_label=Rolls_RR1_RELEASE_0-25
offset=128000
seq_length=2
seq_position=1
trigger=release
xfin_hicc1=25
xfout_hicc1=50
xfout_locc1=25

<region>
hivel=127
key=D2
lovel=1
sample=Snare_SnareOff_Sticks_Buzz_Roll_P_D3_RR1.opus
</region>

<region>
hivel=127
key=D#2
lovel=1
sample=Snare_SnareOff_Sticks_Halfway_Buzz_Roll_P_D3_RR1.opus
</region>

<region>
hivel=127
key=E2
lovel=1
sample=Snare_SnareOff_Sticks_Edge_Buzz_Roll_P_D3_RR1.opus
</region>
</group>

<group>
amp_veltrack=0
ampeg_attack=0.01
ampeg_release=1.95
group_label=Rolls_RR1_RELEASE_26-50
offset=128000
seq_length=2
seq_position=1
trigger=release
xfin_hicc1=50
xfin_locc1=26
xfout_hicc1=74
xfout_locc1=50

<region>
hivel=127
key=D2
lovel=1
sample=Snare_SnareOff_Sticks_Buzz_Roll_MP_D3_RR1.opus
</region>

<region>
hivel=127
key=D#2
lovel=1
sample=Snare_SnareOff_Sticks_Halfway_Buzz_Roll_MP_D3_RR1.opus
</region>

<region>
hivel=127
key=E2
lovel=1
sample=Snare_SnareOff_Sticks_Edge_Buzz_Roll_MP_D3_RR1.opus
</region>
</group>

<group>
amp_veltrack=0
ampeg_attack=0.01
ampeg_release=1.95
group_label=Rolls_RR1_RELEASE_101-127
offset=128000
seq_length=2
seq_position=1
trigger=release
xfin_hicc1=127
xfin_locc1=101
xfout_hicc1=127
xfout_locc1=127

<region>
hivel=127
key=D2
lovel=1
sample=Snare_SnareOff_Sticks_Buzz_Roll_FF_D3_RR1.opus
</region>

<region>
hivel=127
key=D#2
lovel=1
sample=Snare_SnareOff_Sticks_Halfway_Buzz_Roll_FF_D3_RR1.opus
</region>

<region>
hivel=127
key=E2
lovel=1
sample=Snare_SnareOff_Sticks_Edge_Buzz_Roll_FF_D3_RR1.opus
</region>
</group>

<group>
amp_veltrack=0
ampeg_attack=0.01
ampeg_release=1.95
group_label=Rolls_RR2_RELEASE_51-75
offset=128000
seq_length=2
seq_position=2
trigger=release
xfin_hicc1=75
xfin_locc1=51
xfout_hicc1=99
xfout_locc1=75

<region>
hivel=127
key=D2
lovel=1
sample=Snare_SnareOff_Sticks_Buzz_Roll_MF_D3_RR2.opus
</region>

<region>
hivel=127
key=D#2
lovel=1
sample=Snare_SnareOff_Sticks_Halfway_Buzz_Roll_MF_D3_RR2.opus
</region>

<region>
hivel=127
key=E2
lovel=1
sample=Snare_SnareOff_Sticks_Edge_Buzz_Roll_MF_D3_RR2.opus
</region>
</group>

<group>
amp_veltrack=0
ampeg_attack=0.01
ampeg_release=1.95
group_label=Rolls_RR2_RELEASE_76-100
offset=128000
seq_length=2
seq_position=2
trigger=release
xfin_hicc1=100
xfin_locc1=76
xfout_hicc1=124
xfout_locc1=100

<region>
hivel=127
key=D2
lovel=1
sample=Snare_SnareOff_Sticks_Buzz_Roll_F_D3_RR2.opus
</region>

<region>
hivel=127
key=D#2
lovel=1
sample=Snare_SnareOff_Sticks_Halfway_Buzz_Roll_F_D3_RR2.opus
</region>

<region>
hivel=127
key=E2
lovel=1
sample=Snare_SnareOff_Sticks_Edge_Buzz_Roll_F_D3_RR2.opus
</region>
</group>

<group>
amp_veltrack=0
ampeg_attack=0.01
ampeg_release=1.95
group_label=Rolls_RR2_RELEASE_0-25
offset=128000
seq_length=2
seq_position=2
trigger=release
xfin_hicc1=25
xfout_hicc1=50
xfout_locc1=25

<region>
hivel=127
key=D2
lovel=1
sample=Snare_SnareOff_Sticks_Buzz_Roll_P_D3_RR2.opus
</region>

<region>
hivel=127
key=D#2
lovel=1
sample=Snare_SnareOff_Sticks_Halfway_Buzz_Roll_P_D3_RR2.opus
</region>

<region>
hivel=127
key=E2
lovel=1
sample=Snare_SnareOff_Sticks_Edge_Buzz_Roll_P_D3_RR2.opus
</region>
</group>

<group>
amp_veltrack=0
ampeg_attack=0.01
ampeg_release=1.95
group_label=Rolls_RR2_RELEASE_26-50
offset=128000
seq_length=2
seq_position=2
trigger=release
xfin_hicc1=50
xfin_locc1=26
xfout_hicc1=74
xfout_locc1=50

<region>
hivel=127
key=D2
lovel=1
sample=Snare_SnareOff_Sticks_Buzz_Roll_MP_D3_RR2.opus
</region>

<region>
hivel=127
key=D#2
lovel=1
sample=Snare_SnareOff_Sticks_Halfway_Buzz_Roll_MP_D3_RR2.opus
</region>

<region>
hivel=127
key=E2
lovel=1
sample=Snare_SnareOff_Sticks_Edge_Buzz_Roll_MP_D3_RR2.opus
</region>
</group>

<group>
amp_veltrack=0
ampeg_attack=0.01
ampeg_release=1.95
group_label=Rolls_RR2_RELEASE_101-127
offset=128000
seq_length=2
seq_position=2
trigger=release
xfin_hicc1=127
xfin_locc1=101
xfout_hicc1=127
xfout_locc1=127

<region>
hivel=127
key=D2
lovel=1
sample=Snare_SnareOff_Sticks_Buzz_Roll_FF_D3_RR2.opus
</region>

<region>
hivel=127
key=D#2
lovel=1
sample=Snare_SnareOff_Sticks_Halfway_Buzz_Roll_FF_D3_RR2.opus
</region>

<region>
hivel=127
key=E2
lovel=1
sample=Snare_SnareOff_Sticks_Edge_Buzz_Roll_FF_D3_RR2.opus
</region>
</group>